PathFileType	4	(X/Y/Z)	RBDS010\RBDS010runT35.trc
DataRate	CameraRate	NumFrames	NumMarkers	Units	OrigDataRate	OrigDataStartFrame	OrigNumFrames
150.000000	150.000000	4	32	mm	150.000000	1687	4500
Frame#	Time	L.ASIS			L.Heel.Bottom			L.Heel.Lateral			L.Heel.Top			L.Iliac.Crest			L.MT5			L.PSIS			L.Shank.Bottom.Lateral			L.Shank.Bottom.Medial			L.Shank.Top.Lateral			L.Shank.Top.Medial			L.Thigh.Bottom.Lateral			L.Thigh.Bottom.Medial			L.Thigh.Top.Lateral			L.Thigh.Top.Medial			R.ASIS			R.ASY			R.Heel.Bottom			R.Heel.Lateral			R.Heel.Top			R.Iliac.Crest			R.MT1			R.MT5			R.PSIS			R.Shank.Bottom.Lateral			R.Shank.Bottom.Medial			R.Shank.Top.Lateral			R.Shank.Top.Medial			R.Thigh.Bottom.Lateral			R.Thigh.Bottom.Medial			R.Thigh.Top.Lateral			R.Thigh.Top.Medial			
		X1	Y1	Z1	X2	Y2	Z2	X3	Y3	Z3	X4	Y4	Z4	X5	Y5	Z5	X6	Y6	Z6	X7	Y7	Z7	X8	Y8	Z8	X9	Y9	Z9	X10	Y10	Z10	X11	Y11	Z11	X12	Y12	Z12	X13	Y13	Z13	X14	Y14	Z14	X15	Y15	Z15	X16	Y16	Z16	X17	Y17	Z17	X18	Y18	Z18	X19	Y19	Z19	X20	Y20	Z20	X21	Y21	Z21	X22	Y22	Z22	X23	Y23	Z23	X24	Y24	Z24	X25	Y25	Z25	X26	Y26	Z26	X27	Y27	Z27	X28	Y28	Z28	X29	Y29	Z29	X30	Y30	Z30	X31	Y31	Z31	X32	Y32	Z32	

1688	11.24666666666667	2334.745051151079	974.9889472595569	866.1760948526997	2165.36492426545	176.9007142918116	906.8615621812173	2201.85453283866	183.4696564936394	865.4383330997242	2196.169870076195	217.4821264389638	914.485759895222	2286.822936608312	1069.466769953186	838.0416394494024	2344.932760246184	108.0066712144075	846.7971540914134	2180.557727881903	1038.068170390307	944.8488424320652	2284.284739973981	270.3574163252672	862.3158576793119	2252.225981226675	287.2210632057536	902.2527897223467	2312.719851853539	344.6995148010841	852.0346612128669	2280.968085291314	362.6110604782224	891.6298029774372	2413.424260827138	625.793029571272	840.9653056070619	2363.30028884065	591.1362020101269	880.3886832741883	2338.558123174204	705.1289530671299	822.0420095466651	2292.594614376325	674.6723506635309	862.1400981325795	2344.456815544177	947.8230728441957	1091.131556831475	1904.669249078077	115.8047341026	1038.860012530119	1742.261203130622	203.5155782246893	1000.10506386451	1765.244355736132	194.7085638697099	1049.42123708182	1781.981886540538	230.1705600275646	1010.857298424362	2308.296835557996	1040.314278559857	1132.113593876869	1900.935009870204	64.39849688821991	979.1972382457053	1861.268338664829	69.03994620289069	1086.274578038943	2189.53768803745	1035.198254231367	1044.439155567632	1875.352954593508	269.8120362151656	1076.100604950876	1843.753022510175	294.7400342795499	1043.401815070325	1914.582583395023	344.1080191531684	1092.183239157224	1879.11185309015	366.1646530573901	1057.414898337007	2107.942891598383	623.0685294938551	1126.969004820339	2050.477054066162	648.0042819595484	1087.638525129165	2138.762528876463	727.5925814456548	1142.686681075447	2086.216736497757	751.5570440892691	1105.091563038004	
1689	11.25333333333333	2335.132191387283	978.4468493274979	865.9294908396082	2190.797999425884	159.7019503916391	908.9058723303727	2226.662229561525	167.9028619216876	867.1665958715161	2218.716708364464	202.4611602756633	915.5558285595656	2287.340691972646	1073.780695225628	838.0145698821382	2374.534958359222	102.0411181670867	849.8537414336158	2182.087546497195	1041.59271053311	945.0929403442823	2302.556205131174	261.5519929406186	863.3278915820043	2269.910348600012	276.355478921542	903.542560762639	2325.844323457939	337.5443780519804	852.4413552994207	2293.509493716634	353.3695766834983	892.4539225195487	2413.180312650343	628.2068728088299	840.690540144868	2362.415554313546	593.0355845051342	878.972748016356	2338.772706530419	708.0793501075132	822.2425557387969	2292.281593946422	677.162696020776	861.3933189649536	2345.975377160997	950.5070035627101	1090.132727772003	1888.991487397221	122.3915060721644	1040.127427733973	1731.521399254669	220.0515101066129	1002.368801867443	1754.035887889851	209.2234205299005	1051.501187100833	1772.801036239528	244.2897070585461	1013.489541885114	2311.925269437299	1043.568992967721	1131.235416618565	1882.392011294184	71.8139723175524	979.6286041550619	1842.696902933435	76.88454649129109	1086.59282606666	2191.383397337986	1038.75347211638	1044.723515133655	1865.67937721256	279.149511838157	1078.18922358217	1834.474844304455	304.2794502079742	1045.228311788353	1906.228221048367	352.9195583677814	1093.448255263898	1870.96715333954	375.2250368533491	1058.686368333651	2103.931042558463	629.0715334496565	1126.99984622183	2046.993011520588	655.0068513348498	1087.448583931298	2136.728495342558	733.1092620313157	1142.533951695257	2084.688002945266	757.9086777454833	1104.720949384058	
1690	11.26	2335.504240910668	981.215456790906	865.9655412927815	2216.531936146996	143.606109205717	911.4304055826079	2251.653707401951	153.2218962102465	869.2886087514339	2241.524127802229	188.2660349112071	916.9575429187208	2287.997620681808	1077.207249522973	837.925874104942	2403.493019617511	96.88688475104755	852.9598224367687	2183.429578462179	1044.525862380347	945.1190800959582	2320.580501517217	253.0691796631206	864.4674632869009	2287.543111390185	265.8671104937526	904.9804739636185	2338.644186148688	330.3031406102755	852.8489503314012	2305.903241684226	344.0962202141203	893.2864096755583	2412.021592004189	629.4382658174843	840.1351380233657	2360.780630277688	594.0281837808899	877.660646390264	2338.209700071259	709.9820659629462	822.2750225178414	2291.31329397742	678.8242934693885	860.7647524804862	2347.168437337693	953.1299770077318	1089.507503229563	1873.302597099508	130.0350778425842	1041.039907553554	1720.924775489553	236.8863913365841	1005.026778989318	1743.045499415398	224.1239928817575	1053.882284750225	1763.606511258632	258.7408815822232	1016.33302738597	2314.820049344738	1046.738150793118	1130.418214835532	1863.863948635683	80.48329087408698	979.8420776036426	1824.518622499565	85.86953327164716	1086.865710650236	2192.854097849343	1041.975440620909	1044.758146768617	1856.425075729104	288.6621508460533	1080.213031200208	1825.666701783241	314.2476354370198	1047.189962184681	1898.701957321131	361.584759993058	1094.734626004958	1863.735714476818	384.4130027760779	1060.131970907703	2101.227308459519	634.1500159550571	1127.026862601494	2044.7007530802	660.8042561019193	1087.258059440059	2135.468959175911	737.7939787418596	1142.415938942271	2083.807333181507	763.1937261397462	1104.426276363593	
1691	11.26666666666667	2335.88612049388	983.3205239402255	866.2907227397774	2242.273976464737	128.8061028567307	914.4338490784343	2276.560651912081	139.6028959332844	871.8084492224111	2264.350134701103	175.0845759783275	918.7040003757367	2288.766601702812	1079.706644784662	837.7816671088042	2431.56939938824	92.55435073852503	856.0488999219124	2184.568070456637	1046.838117590015	944.9453539677486	2338.21376638331	245.0145206053629	865.7320372915567	2304.951422623726	255.8865579101066	906.5514580943052	2351.020780407308	323.0825362279986	853.2792539367975	2318.018574691593	334.9242670643734	894.1270650846998	2409.945368659033	629.5193837313126	839.3169660776618	2358.440542776204	594.1907040121106	876.5581599920164	2336.860507132201	710.8464439788722	822.131044419675	2289.717784892488	679.7096714362489	860.3179510332067	2348.068732641537	955.664560541197	1089.289094409717	1857.645674737589	138.7309060371713	1041.575359021129	1710.419162156077	253.9611682459989	1008.01636029258	1732.244689677894	239.3638405823321	1056.506805446821	1754.344968127219	273.488132976937	1019.303584741935	2316.828623260431	1049.803222252059	1129.693654732297	1845.375274008275	90.37088693374375	979.8236801161435	1806.787803459654	95.96713897501117	1087.084982149036	2193.951457370948	1044.806937359029	1044.554680181096	1847.51634960583	298.374393976307	1082.103393173779	1817.280491350042	324.6716013428952	1049.20474816821	1891.909106466932	370.0982388326835	1095.987227613009	1857.351753407487	393.7310551678272	1061.682059061831	2099.83376847893	638.1943229170142	1127.032351359317	2043.580878812003	665.3114995923708	1087.081545487541	2135.018439152802	741.5448107281521	1142.334519174524	2083.58959169617	767.3357479099553	1104.23746209237	
